<svg width="360" height="245" viewBox="0 0 360 245" fill="none" xmlns="http://www.w3.org/2000/svg">
<g clip-path="url(#clip0_2062_18507)">
<path d="M110.187 113.997H63.8477V165.93H110.187V113.997Z" fill="#2F2E41"/>
<path d="M40.2555 244.041H16.6643L14.1367 223.774H42.7832L40.2555 244.041Z" fill="#2F2E41"/>
<path d="M87.6257 229.361L86.8295 240.269C86.7935 240.763 86.8632 241.258 87.034 241.723C87.2048 242.187 87.4727 242.61 87.8198 242.962C88.1669 243.314 88.5852 243.588 89.0465 243.765C89.5078 243.942 90.0015 244.018 90.4946 243.988L96.0848 243.649C96.3438 243.633 96.5962 243.56 96.824 243.436C97.0518 243.311 97.2494 243.138 97.4029 242.928C97.5563 242.718 97.6617 242.477 97.7117 242.222C97.7617 241.967 97.755 241.704 97.6921 241.452L94.589 229.012L87.6257 229.361Z" fill="#2F2E41"/>
<path d="M134.387 235.812C140.966 237.354 145.666 239.547 148.754 242.514C149.853 243.563 151.292 244.181 152.808 244.256C154.744 244.358 156.327 244.141 157.517 243.608C157.822 243.473 158.085 243.259 158.28 242.988C158.474 242.717 158.593 242.399 158.623 242.066C158.659 241.729 158.604 241.388 158.465 241.078C158.325 240.769 158.105 240.503 157.828 240.307L142.224 229.18L135.596 231.837L134.05 233.387C133.882 233.555 133.756 233.759 133.681 233.984C133.606 234.209 133.584 234.448 133.616 234.683C133.649 234.918 133.735 235.143 133.869 235.338C134.003 235.534 134.18 235.696 134.387 235.812Z" fill="#2F2E41"/>
<path d="M114.14 57.713L69.5391 57.2991C69.6512 50.7882 71.1627 44.3947 74.4665 38.6734C76.6364 34.9159 76.5895 30.8265 76.0666 27.3814C75.2596 22.0648 77.1361 16.6251 81.306 13.2407C84.4926 10.6498 88.5144 9.31611 92.614 9.49081L93.4801 9.52697C96.3011 9.64447 99.0474 10.4704 101.467 11.9289C103.886 13.3874 105.902 15.4317 107.327 17.8742C108.777 20.4816 109.361 23.4834 108.996 26.4456C108.714 29.2328 109.39 32.0484 110.972 34.8908C113.702 41.1323 114.293 49.1191 114.14 57.713Z" fill="#2F2E41"/>
<path d="M143.979 229.76L135.226 232.049L92.5998 138.976L95.2639 229.76H86.5104C77.1567 187.049 60.2692 137.755 67.8616 122.193L113.151 119.522L143.979 229.76Z" fill="#31CEB8"/>
<path d="M92.2201 42.089C98.736 42.089 104.018 36.7949 104.018 30.2642C104.018 23.7336 98.736 18.4395 92.2201 18.4395C85.7041 18.4395 80.4219 23.7336 80.4219 30.2642C80.4219 36.7949 85.7041 42.089 92.2201 42.089Z" fill="#FFB9B9"/>
<path d="M102.496 52.0064L83.0859 50.8621C84.9881 46.4863 85.748 42.2726 84.9889 38.2744H99.4512C99.4184 41.3442 100.943 46.6544 102.496 52.0064Z" fill="#FFB9B9"/>
<path d="M114.676 122.955L72.0508 126.007L76.4274 50.2902L83.8489 48.1922L92.2217 50.0993L100.594 45.9033L105.923 47.8109L114.676 122.955Z" fill="#31CEB8"/>
<path d="M79.279 177.502L50.1641 170.826C58.8214 142.053 74.4181 76.2274 69.3837 52.7693L84.6072 45.9033L79.279 177.502Z" fill="#2F2E41"/>
<path d="M65.1972 94.3474L54.1602 87.4814L63.5728 59.8515C64.6226 57.0004 66.6334 54.6067 69.2575 53.084L72.4283 51.2441L70.5254 79.0896L65.1972 94.3474Z" fill="#2F2E41"/>
<path d="M139.983 171.208C130.794 176.537 107.823 179.507 97.7377 175.785C96.9956 149.788 95.5401 76.2515 100.212 45.1406L116.957 52.0066L115.435 72.6046C107.429 90.2251 130.676 151.597 139.983 171.208Z" fill="#2F2E41"/>
<path d="M138.653 90.9144L128.377 87.4814L114.676 71.8419L116.959 52.0068L139.794 84.0483L138.653 90.9144Z" fill="#2F2E41"/>
<path d="M106.445 105.761C106.614 106.501 107.067 107.143 107.708 107.548C108.348 107.952 109.122 108.086 109.86 107.92L118.583 105.94L117.322 100.359L108.599 102.339C107.861 102.507 107.219 102.961 106.815 103.603C106.411 104.245 106.278 105.021 106.445 105.761Z" fill="#FFB9B9"/>
<path d="M102.496 27.2125C95.9427 24.5117 89.4705 24.3163 83.086 26.831L80.4219 17.2949H104.779L102.496 27.2125Z" fill="#2F2E41"/>
<path d="M114.293 99.3056L119.241 108.46C127.562 106.134 134.775 98.8004 141.695 90.151L139.792 84.0479L127.994 87.0994L114.293 99.3056Z" fill="#2F2E41"/>
<path d="M110.68 80.4237H109.158C109.158 58.8438 104.724 43.8051 100.404 43.8051L100.023 42.2793C103.898 42.2793 106.368 48.5383 107.758 53.7891C109.642 60.9075 110.68 70.3665 110.68 80.4237Z" fill="white"/>
<path d="M75.663 75.0843H74.1406C74.1406 55.3205 78.6045 43.043 85.1776 43.043L84.7971 44.5687C80.2505 44.5687 75.663 54.0045 75.663 75.0843Z" fill="white"/>
<path d="M109.919 84.6201C112.021 84.6201 113.725 82.9123 113.725 80.8057C113.725 78.699 112.021 76.9912 109.919 76.9912C107.817 76.9912 106.113 78.699 106.113 80.8057C106.113 82.9123 107.817 84.6201 109.919 84.6201Z" fill="white"/>
<path d="M69.577 84.2388H68.0547C68.0547 78.7703 71.1278 74.3213 74.9053 74.3213V75.8471C71.9672 75.8471 69.577 79.6116 69.577 84.2388Z" fill="white"/>
<path d="M81.7529 84.2389H80.2306C80.2306 79.6116 77.8404 75.8471 74.9023 75.8471V74.3213C78.6798 74.3213 81.7529 78.7703 81.7529 84.2389Z" fill="white"/>
<path d="M80.9911 86.1463C81.8319 86.1463 82.5134 85.4632 82.5134 84.6205C82.5134 83.7778 81.8319 83.0947 80.9911 83.0947C80.1503 83.0947 79.4688 83.7778 79.4688 84.6205C79.4688 85.4632 80.1503 86.1463 80.9911 86.1463Z" fill="white"/>
<path d="M68.8153 86.1463C69.6561 86.1463 70.3377 85.4632 70.3377 84.6205C70.3377 83.7778 69.6561 83.0947 68.8153 83.0947C67.9745 83.0947 67.293 83.7778 67.293 84.6205C67.293 85.4632 67.9745 86.1463 68.8153 86.1463Z" fill="white"/>
<path d="M49.7852 70.5898L59.2836 72.2897L80.9933 103.228L69.4598 100.508L49.7852 70.5898Z" fill="#31CEB8"/>
<path d="M48.1004 70.2109C47.9557 70.2131 47.8142 70.2542 47.6907 70.33C47.5673 70.4058 47.4664 70.5134 47.3986 70.6416C47.3309 70.7698 47.2987 70.9139 47.3056 71.0588C47.3124 71.2037 47.358 71.3441 47.4375 71.4654L67.7307 102.325C67.844 102.497 68.0189 102.62 68.2195 102.667L77.6613 104.893C77.8205 104.931 77.9873 104.919 78.1396 104.859C78.2919 104.8 78.4226 104.695 78.5142 104.559C78.6058 104.423 78.654 104.263 78.6525 104.099C78.651 103.935 78.5998 103.775 78.5057 103.641L56.225 71.8896C56.1646 71.8031 56.0878 71.7294 55.9989 71.6727C55.91 71.616 55.8109 71.5773 55.7071 71.559L48.2526 70.2247C48.2024 70.2157 48.1514 70.2111 48.1004 70.2109Z" fill="#3F3D56"/>
<path d="M60.7578 92.2744L61.3218 97.9682L70.2217 97.0827C70.9751 97.0078 71.6679 96.636 72.1477 96.0491C72.6275 95.4622 72.8551 94.7084 72.7803 93.9533C72.7055 93.1983 72.3346 92.5039 71.749 92.023C71.1635 91.5421 70.4113 91.3141 69.6579 91.389L60.7578 92.2744Z" fill="#FFB9B9"/>
<path d="M53.0195 91.6153C53.0325 93.5567 53.8104 95.4144 55.184 96.7834C56.5575 98.1525 58.4152 98.922 60.3523 98.9242H61.8158L62.8812 90.0256L54.0598 86.8428L53.0195 91.6153Z" fill="#2F2E41"/>
<path d="M360.001 0.841797H186.438V92.4636H360.001V0.841797Z" fill="#2F2E41"/>
<path d="M191.492 87.3967H354.945V5.9082H191.492V87.3967Z" fill="white"/>
<path d="M262.264 17.7305H204.129V75.9969H262.264V17.7305Z" fill="#3F3D56"/>
<path d="M248.365 44.3309C249.295 44.3309 250.05 43.5748 250.05 42.642C250.05 41.7093 249.295 40.9531 248.365 40.9531C247.434 40.9531 246.68 41.7093 246.68 42.642C246.68 43.5748 247.434 44.3309 248.365 44.3309Z" fill="#31CEB8"/>
<path d="M242.044 38.4198C242.975 38.4198 243.73 37.6636 243.73 36.7309C243.73 35.7981 242.975 35.042 242.044 35.042C241.114 35.042 240.359 35.7981 240.359 36.7309C240.359 37.6636 241.114 38.4198 242.044 38.4198Z" fill="#31CEB8"/>
<path d="M241.202 42.6413C240.582 42.6414 239.974 42.814 239.446 43.1399C238.981 42.4391 238.435 41.7962 237.818 41.2248C237.826 41.1347 237.832 41.0444 237.832 40.9524C237.833 40.2897 237.638 39.6415 237.274 39.0886C236.909 38.5358 236.39 38.1027 235.781 37.8435C235.173 37.5843 234.502 37.5104 233.851 37.631C233.201 37.7516 232.601 38.0614 232.125 38.5217C231.223 38.3934 230.307 38.3854 229.403 38.4979C229.403 38.4715 229.407 38.4457 229.407 38.4191C229.407 37.8537 229.266 37.2972 228.997 36.8006C228.727 36.304 228.338 35.8831 227.864 35.5766C227.39 35.2701 226.846 35.0877 226.284 35.0462C225.721 35.0047 225.157 35.1054 224.644 35.3391C224.13 35.5728 223.683 35.9319 223.344 36.3836C223.005 36.8354 222.784 37.3652 222.702 37.9246C222.62 38.484 222.68 39.055 222.875 39.5854C223.071 40.1157 223.396 40.5884 223.821 40.9601C223.257 41.4445 222.745 41.987 222.294 42.5787C221.878 42.2318 221.385 41.9903 220.856 41.8748C220.327 41.7593 219.779 41.7732 219.256 41.9152C218.734 42.0572 218.253 42.3232 217.855 42.6906C217.457 43.0581 217.153 43.5162 216.969 44.0263C216.785 44.5364 216.727 45.0834 216.798 45.621C216.87 46.1587 217.069 46.6712 217.38 47.1151C217.691 47.5591 218.104 47.9215 218.584 48.1717C219.064 48.4219 219.597 48.5524 220.139 48.5524L220.149 48.5519C220.144 48.6923 220.139 48.8328 220.139 48.9746C220.139 49.8245 220.241 50.6712 220.444 51.4965C219.442 51.8743 218.552 52.5009 217.859 53.3175C217.165 54.1342 216.69 55.1141 216.477 56.1654C216.265 57.2166 216.322 58.3047 216.645 59.3275C216.967 60.3503 217.543 61.2744 218.319 62.0128C219.095 62.7513 220.046 63.2801 221.082 63.5494C222.118 63.8188 223.205 63.82 224.241 63.5529C225.278 63.2857 226.229 62.7591 227.007 62.0223C227.785 61.2855 228.363 60.3627 228.687 59.3406C231.032 59.7922 233.459 59.4313 235.572 58.3171C235.788 58.826 236.125 59.2742 236.553 59.6221C236.982 59.97 237.49 60.2071 238.031 60.3126C238.573 60.418 239.132 60.3886 239.66 60.2269C240.187 60.0652 240.667 59.7762 241.058 59.3851C241.448 58.9941 241.736 58.5131 241.897 57.9843C242.059 57.4555 242.088 56.895 241.983 56.3522C241.878 55.8094 241.641 55.3007 241.294 54.8709C240.947 54.4411 240.5 54.1033 239.992 53.8871C240.722 52.4989 241.132 50.9643 241.192 49.3963L241.202 49.3968C242.096 49.3968 242.953 49.041 243.585 48.4075C244.217 47.7741 244.572 46.9149 244.572 46.0191C244.572 45.1232 244.217 44.2641 243.585 43.6306C242.953 42.9972 242.096 42.6413 241.202 42.6413Z" fill="#31CEB8"/>
<path d="M240.359 16.4639H223.508V18.9972H240.359V16.4639Z" fill="#31CEB8"/>
<path d="M336.409 17.7305H278.273V75.9969H336.409V17.7305Z" fill="#3F3D56"/>
<path d="M318.379 57.2505C318.798 57.2505 319.138 56.9102 319.138 56.4905C319.138 56.0707 318.798 55.7305 318.379 55.7305C317.961 55.7305 317.621 56.0707 317.621 56.4905C317.621 56.9102 317.961 57.2505 318.379 57.2505Z" fill="#31CEB8"/>
<path d="M315.536 54.5903C315.954 54.5903 316.294 54.25 316.294 53.8303C316.294 53.4106 315.954 53.0703 315.536 53.0703C315.117 53.0703 314.777 53.4106 314.777 53.8303C314.777 54.25 315.117 54.5903 315.536 54.5903Z" fill="#31CEB8"/>
<path d="M315.155 56.4902C314.876 56.4903 314.603 56.568 314.365 56.7146C314.156 56.3992 313.91 56.1099 313.633 55.8528C313.636 55.8123 313.639 55.7716 313.639 55.7302C313.639 55.432 313.552 55.1403 313.388 54.8915C313.224 54.6427 312.99 54.4479 312.716 54.3312C312.442 54.2146 312.14 54.1813 311.848 54.2356C311.555 54.2899 311.285 54.4293 311.071 54.6364C310.665 54.5787 310.253 54.5751 309.846 54.6257C309.846 54.6138 309.847 54.6022 309.847 54.5903C309.848 54.3358 309.784 54.0854 309.663 53.8619C309.542 53.6384 309.366 53.449 309.153 53.3111C308.94 53.1732 308.695 53.0911 308.442 53.0725C308.189 53.0538 307.935 53.0991 307.704 53.2042C307.473 53.3094 307.272 53.471 307.119 53.6743C306.967 53.8776 306.867 54.116 306.83 54.3677C306.794 54.6194 306.82 54.8764 306.908 55.1151C306.996 55.3537 307.143 55.5664 307.334 55.7337C307.08 55.9517 306.85 56.1958 306.647 56.4621C306.46 56.306 306.238 56.1973 306 56.1453C305.762 56.0934 305.515 56.0996 305.28 56.1635C305.045 56.2274 304.828 56.3471 304.649 56.5124C304.47 56.6778 304.333 56.884 304.251 57.1135C304.168 57.343 304.141 57.5892 304.174 57.8311C304.206 58.0731 304.296 58.3037 304.435 58.5035C304.575 58.7032 304.761 58.8663 304.977 58.9789C305.193 59.0915 305.433 59.1502 305.677 59.1502L305.682 59.15C305.679 59.2132 305.677 59.2764 305.677 59.3402C305.677 59.7227 305.723 60.1037 305.814 60.4751C305.363 60.6451 304.963 60.927 304.651 61.2945C304.339 61.662 304.125 62.103 304.029 62.5761C303.934 63.0491 303.96 63.5388 304.105 63.999C304.25 64.4593 304.509 64.8751 304.858 65.2074C305.207 65.5397 305.635 65.7777 306.101 65.8989C306.567 66.0201 307.057 66.0206 307.523 65.9004C307.989 65.7802 308.418 65.5432 308.768 65.2117C309.118 64.8801 309.378 64.4649 309.524 64.0049C310.579 64.2082 311.671 64.0457 312.622 63.5443C312.719 63.7734 312.871 63.975 313.064 64.1316C313.257 64.2882 313.485 64.3949 313.729 64.4423C313.972 64.4898 314.224 64.4765 314.461 64.4038C314.699 64.331 314.915 64.2009 315.09 64.025C315.266 63.849 315.396 63.6325 315.468 63.3946C315.541 63.1566 315.554 62.9044 315.507 62.6601C315.459 62.4159 315.353 62.187 315.197 61.9936C315.041 61.8002 314.839 61.6481 314.611 61.5508C314.939 60.9261 315.124 60.2356 315.151 59.53L315.155 59.5302C315.558 59.5302 315.943 59.3701 316.228 59.085C316.512 58.8 316.672 58.4134 316.672 58.0102C316.672 57.6071 316.512 57.2205 316.228 56.9354C315.943 56.6504 315.558 56.4902 315.155 56.4902Z" fill="#31CEB8"/>
<path d="M324.329 42.8286C324.747 42.8286 325.087 42.4883 325.087 42.0686C325.087 41.6489 324.747 41.3086 324.329 41.3086C323.91 41.3086 323.57 41.6489 323.57 42.0686C323.57 42.4883 323.91 42.8286 324.329 42.8286Z" fill="#31CEB8"/>
<path d="M326.11 39.3637C326.529 39.3637 326.868 39.0235 326.868 38.6037C326.868 38.184 326.529 37.8438 326.11 37.8438C325.691 37.8438 325.352 38.184 325.352 38.6037C325.352 39.0235 325.691 39.3637 326.11 39.3637Z" fill="#31CEB8"/>
<path d="M323.452 38.9587C323.376 38.6896 323.228 38.4467 323.022 38.2573C323.268 37.97 323.48 37.6543 323.651 37.3169C323.691 37.309 323.731 37.3008 323.771 37.2896C324.057 37.209 324.314 37.0456 324.508 36.8199C324.703 36.5941 324.826 36.316 324.864 36.0202C324.902 35.7244 324.852 35.4239 324.721 35.1564C324.589 34.8888 324.382 34.666 324.125 34.5156C324.07 34.1082 323.962 33.7098 323.803 33.3308C323.815 33.3278 323.826 33.3261 323.838 33.3229C324.082 33.2542 324.306 33.1252 324.487 32.9476C324.669 32.7699 324.803 32.5494 324.878 32.3063C324.953 32.0631 324.965 31.805 324.915 31.5558C324.864 31.3065 324.752 31.0739 324.588 30.8794C324.424 30.6849 324.215 30.5347 323.978 30.4425C323.741 30.3504 323.485 30.3192 323.234 30.3519C322.982 30.3846 322.742 30.4801 322.537 30.6296C322.332 30.7792 322.167 30.978 322.058 31.2079C321.78 31.0221 321.483 30.8661 321.173 30.7425C321.272 30.5196 321.316 30.276 321.301 30.0324C321.287 29.7887 321.214 29.5522 321.089 29.3428C320.964 29.1333 320.79 28.9572 320.583 28.8292C320.375 28.7012 320.14 28.6252 319.897 28.6075C319.654 28.5898 319.411 28.631 319.187 28.7277C318.964 28.8243 318.767 28.9735 318.613 29.1626C318.459 29.3517 318.352 29.5752 318.303 29.8142C318.253 30.0532 318.262 30.3006 318.328 30.5355L318.329 30.5401C318.268 30.5548 318.207 30.5697 318.145 30.587C317.778 30.6907 317.425 30.8385 317.093 31.027C316.807 30.6382 316.428 30.3285 315.99 30.127C315.553 29.9254 315.071 29.8386 314.591 29.8746C314.111 29.9106 313.648 30.0684 313.245 30.333C312.842 30.5976 312.513 30.9605 312.289 31.3875C312.064 31.8145 311.952 32.2917 311.962 32.7743C311.971 33.2568 312.104 33.7289 312.345 34.1463C312.587 34.5637 312.931 34.9126 313.344 35.1603C313.758 35.4081 314.227 35.5465 314.708 35.5627C314.799 36.6355 315.251 37.6454 315.99 38.4266C315.797 38.5823 315.644 38.7833 315.546 39.0119C315.448 39.2405 315.408 39.4898 315.428 39.7378C315.449 39.9858 315.529 40.2249 315.664 40.4343C315.798 40.6436 315.981 40.8167 316.198 40.9384C316.415 41.06 316.658 41.1266 316.906 41.1321C317.154 41.1376 317.4 41.082 317.622 40.9701C317.843 40.8582 318.034 40.6935 318.178 40.4903C318.321 40.2872 318.413 40.0519 318.444 39.8051C319.133 39.9526 319.846 39.9433 320.531 39.7781L320.532 39.7828C320.586 39.975 320.677 40.1548 320.801 40.3117C320.924 40.4687 321.077 40.5997 321.25 40.6975C321.424 40.7952 321.615 40.8576 321.813 40.8812C322.011 40.9048 322.212 40.889 322.404 40.8349C322.595 40.7808 322.775 40.6893 322.931 40.5657C323.088 40.4421 323.218 40.2888 323.316 40.1145C323.413 39.9403 323.475 39.7485 323.499 39.5502C323.522 39.3519 323.506 39.1509 323.452 38.9587Z" fill="#31CEB8"/>
<path d="M294.958 32.5005C295.376 32.5005 295.716 32.1602 295.716 31.7405C295.716 31.3207 295.376 30.9805 294.958 30.9805C294.539 30.9805 294.199 31.3207 294.199 31.7405C294.199 32.1602 294.539 32.5005 294.958 32.5005Z" fill="#31CEB8"/>
<path d="M291.083 32.812C291.501 32.812 291.841 32.4717 291.841 32.052C291.841 31.6323 291.501 31.292 291.083 31.292C290.664 31.292 290.324 31.6323 290.324 32.052C290.324 32.4717 290.664 32.812 291.083 32.812Z" fill="#31CEB8"/>
<path d="M292.785 34.1257C292.597 34.3322 292.47 34.5871 292.418 34.8618C292.044 34.804 291.665 34.791 291.289 34.823C291.261 34.7933 291.233 34.7637 291.202 34.7358C290.983 34.5346 290.709 34.4026 290.415 34.3563C290.121 34.31 289.82 34.3515 289.549 34.4755C289.279 34.5996 289.051 34.8008 288.893 35.0539C288.736 35.3071 288.657 35.6011 288.665 35.8992C288.349 36.1608 288.068 36.4633 287.831 36.7988C287.822 36.7906 287.815 36.7816 287.806 36.7735C287.619 36.6018 287.392 36.4799 287.145 36.419C286.899 36.3581 286.641 36.3602 286.395 36.4251C286.15 36.49 285.925 36.6156 285.74 36.7904C285.556 36.9652 285.418 37.1836 285.34 37.4256C285.261 37.6675 285.245 37.9254 285.292 38.1754C285.339 38.4255 285.447 38.6597 285.608 38.8567C285.769 39.0537 285.976 39.2071 286.211 39.3029C286.446 39.3987 286.702 39.4338 286.954 39.405C286.943 39.7399 286.968 40.075 287.027 40.4047C286.786 40.438 286.556 40.529 286.358 40.6701C286.159 40.8112 285.997 40.9982 285.886 41.2152C285.774 41.4323 285.717 41.673 285.718 41.9171C285.719 42.1612 285.779 42.4014 285.892 42.6175C286.005 42.8335 286.169 43.019 286.369 43.1584C286.569 43.2977 286.799 43.3867 287.041 43.4178C287.282 43.449 287.528 43.4214 287.756 43.3373C287.985 43.2533 288.19 43.1153 288.354 42.935L288.357 42.9313C288.402 42.9758 288.447 43.0201 288.494 43.0631C288.776 43.3209 289.088 43.5438 289.423 43.7268C289.244 44.175 289.182 44.6613 289.243 45.1402C289.303 45.6191 289.484 46.0747 289.768 46.4644C290.052 46.8541 290.43 47.165 290.867 47.3681C291.304 47.5711 291.785 47.6595 292.266 47.625C292.746 47.5906 293.21 47.4344 293.613 47.1711C294.017 46.9078 294.347 46.546 294.573 46.1198C294.799 45.6935 294.913 45.2167 294.905 44.7341C294.896 44.2515 294.766 43.779 294.525 43.3608C295.386 42.717 296.003 41.7988 296.275 40.7571C296.509 40.8397 296.76 40.8634 297.005 40.8261C297.251 40.7888 297.483 40.6917 297.683 40.5433C297.882 40.3949 298.042 40.1997 298.148 39.9749C298.255 39.7501 298.304 39.5026 298.293 39.254C298.282 39.0054 298.21 38.7634 298.083 38.5492C297.957 38.335 297.78 38.1552 297.568 38.0256C297.356 37.8959 297.116 37.8204 296.868 37.8056C296.62 37.7908 296.372 37.8373 296.147 37.9408C295.908 37.2765 295.523 36.6744 295.022 36.1787L295.025 36.1753C295.16 36.028 295.264 35.8554 295.332 35.6677C295.4 35.4799 295.43 35.2805 295.422 35.0809C295.413 34.8813 295.365 34.6854 295.28 34.5045C295.195 34.3235 295.076 34.1611 294.929 34.0264C294.782 33.8916 294.609 33.7874 294.422 33.7194C294.235 33.6515 294.036 33.6213 293.836 33.6305C293.637 33.6398 293.442 33.6882 293.262 33.7732C293.081 33.8582 292.919 33.9779 292.785 34.1257Z" fill="#31CEB8"/>
<path d="M314.503 16.4639H297.652V18.9972H314.503V16.4639Z" fill="#31CEB8"/>
<path d="M10.6077 216.276C16.6823 224.43 29.2919 225.288 29.2919 225.288C29.2919 225.288 32.0527 212.927 25.9781 204.773C19.9035 196.62 7.29392 195.762 7.29392 195.762C7.29392 195.762 4.5331 208.123 10.6077 216.276Z" fill="#31CEB8"/>
<path d="M41.5508 219.342C37.5424 224.722 29.2216 225.288 29.2216 225.288C29.2216 225.288 27.3999 217.132 31.4083 211.751C35.4167 206.371 43.7375 205.805 43.7375 205.805C43.7375 205.805 45.5592 213.962 41.5508 219.342Z" fill="#31CEB8"/>
<path d="M218.874 243.896H0V244.842H218.874V243.896Z" fill="#3F3D56"/>
</g>
<defs>
<clipPath id="clip0_2062_18507">
<rect width="360" height="244" fill="white" transform="translate(0 0.841797)"/>
</clipPath>
</defs>
</svg>
