<svg width="112" height="31" viewBox="0 0 112 31" fill="none" xmlns="http://www.w3.org/2000/svg">
<path d="M58.4144 11.5068H60.2721L61.2672 11.7722L62.0634 12.1703L62.7932 12.7674L63.1249 13.0991L63.8547 12.3693L64.7835 11.8386L65.646 11.5732L65.9777 11.5068H67.7027L68.7642 11.7722L69.7594 12.303L70.5555 13.0328L71.0199 13.7626L71.3516 14.625L71.4843 15.2221L71.5507 15.8192V22.0557L71.4843 22.122H68.8969L68.8305 15.5539L68.5652 14.8241L68.1007 14.2933L67.57 14.0279L67.1056 13.8952H66.1104L65.447 14.1606L64.9825 14.4924L64.5845 15.0895L64.3854 15.8192L64.3191 22.122H61.7316L61.6653 15.9519L61.4663 15.1558L61.0682 14.4924L60.5374 14.0943L59.9403 13.8952H58.8788L58.149 14.1606L57.6183 14.625L57.2865 15.2885L57.2202 15.6202L57.1539 22.122H54.5664V15.4212L54.7654 14.4924L55.0972 13.6962L55.4952 13.0991L55.827 12.701L56.6231 12.1039L57.5519 11.7059L58.4144 11.5068Z" fill="#03162A"/>
<path d="M102.423 22.4092V12.2324H104.983V22.4092H102.423ZM104.983 16.7263V14.1469C105.332 13.5423 105.742 13.0385 106.212 12.6355C106.695 12.2324 107.24 12.0309 107.844 12.0309C108.22 12.0309 108.549 12.0914 108.832 12.2123V15.094C108.63 14.9731 108.415 14.8858 108.187 14.832C107.972 14.7649 107.737 14.7313 107.481 14.7313C106.904 14.7313 106.413 14.9261 106.01 15.3157C105.621 15.6919 105.278 16.1621 104.983 16.7263Z" fill="#03162A"/>
<path d="M76.8591 11.5068H78.2523L79.1812 11.7059L79.9773 12.0376L80.8398 12.6347L81.4369 13.2318L81.9013 13.9616L82.3657 15.0231L82.5648 15.9519L82.6311 16.6817V17.4115L82.5648 17.6769H75.0014L75.3332 18.6057L75.7312 19.1365V19.2692L75.9966 19.4019L76.5274 19.7336L77.0581 19.9326L77.9206 19.999L78.8494 19.7999L79.5792 19.4019L80.0437 19.0038L80.11 18.8711L80.4417 19.0038L81.3705 19.7999L81.9013 20.2643L81.5032 20.7951L80.7071 21.4586L79.6456 21.9893L78.5841 22.2547L77.987 22.321H77.3899L76.3947 22.1883L75.3995 21.8566L74.537 21.3922L73.7409 20.6624L73.3428 20.198L72.8784 19.4019L72.4803 18.2077L72.3477 17.1461L72.414 15.8856L72.6794 14.8904L72.9448 14.227L73.4092 13.4972L74.139 12.701L75.0014 12.1039L75.9303 11.7059L76.8591 11.5068Z" fill="#03162A"/>
<path d="M87.2074 11.5068H89.065L90.1929 11.7722L91.1881 12.303L91.8515 12.9001L92.3823 13.6962L92.714 14.625L92.8467 15.2885V22.122H90.2592L90.1929 15.6202L89.9939 14.9568L89.5958 14.426L89.2641 14.1606L88.7333 13.9616H87.5391L86.8756 14.227L86.5439 14.4924L86.2122 15.0231L86.0795 15.4212L86.0132 22.0557L85.9468 22.122H83.3594V15.4875L83.5584 14.426L83.8901 13.6299L84.2882 13.0328L84.9517 12.3693L85.7478 11.9049L86.8093 11.5732L87.2074 11.5068Z" fill="#03162A"/>
<path d="M94.9711 8.98535H97.4258V11.7718H100.013V14.0276H97.4258L97.4922 18.539L97.6912 19.1361L97.9566 19.5342L98.5537 19.7996H99.4825L100.013 19.7332L100.146 21.3255V22.0553L99.3498 22.2543H97.8902L96.8951 21.9889L96.0989 21.5245L95.5018 20.9274L95.0374 20.1313L94.772 19.1361V14.0276H93.2461V11.8382L93.3124 11.7718H94.772V9.0517L94.9711 8.98535Z" fill="#03162A"/>
<path d="M77.123 13.6299H77.9192L78.5826 13.8289L79.2461 14.227L79.7768 14.9568L79.9759 15.5539V15.8193H75L75.1327 15.2222L75.5971 14.4924L76.1942 13.9616L76.7913 13.6962L77.123 13.6299Z" fill="white"/>
<path d="M42.8142 7.06445L43.539 7.12034L44.3194 7.39977L44.9326 7.84686L45.3229 8.23807L45.7689 9.07637L46.4936 11.4795L47.3298 14.2738L48.1103 16.9005L48.4448 17.9623L49.2252 20.589L49.8384 22.6568L50.0614 23.7745V25.1158L49.8384 26.2335L49.504 27.0718L49.1137 27.8542L48.612 28.5249L47.943 29.2514L47.2741 29.7544L46.4936 30.2015L45.6574 30.5368L44.7654 30.7603L44.3752 30.8162H42.9815L41.8108 30.5927L40.7516 30.1456L40.0826 29.7544L39.5251 29.3073L38.9676 28.8043L38.3544 28.0219L37.9084 27.2395L37.574 26.4012L36.5147 22.8803L35.3998 19.0801L35.2883 18.7447V18.4094L34.8423 18.8006L29.3233 24.3334L28.5428 24.8923L27.7066 25.3393L26.5917 25.6747L25.4767 25.8423H24.6405L23.4698 25.6747L22.4663 25.3393L21.5744 24.8923L20.6824 24.2216L14.8846 18.4094L14.7731 18.3535L14.6616 18.9683L13.9927 21.2596L13.6024 22.545L12.822 25.1717L12.4317 26.4571L12.0415 27.3513L11.707 27.966L11.1495 28.6925L10.4806 29.3632L9.5886 29.9779L8.5294 30.4809L7.41444 30.7603L6.96846 30.8162H5.68627L4.57131 30.5927L3.90234 30.3691L3.01038 29.922L2.39715 29.475L1.83967 28.972L1.33794 28.4131L0.780468 27.5748L0.390234 26.6806L0.111495 25.7306L0 25.1158V23.6628L0.222991 22.545L0.836216 20.4772L1.56094 18.0741L2.28566 15.6151L2.73164 14.162L3.51211 11.5354L4.06958 9.69112L4.51556 8.85282L5.07304 8.23807L5.68627 7.84686L6.13225 7.62332L6.85697 7.45566H7.74893L8.5294 7.62332L9.30987 8.01452L9.97884 8.62928L22.6336 21.3155L23.191 21.8185L23.9715 22.2097L24.3617 22.3215L24.8077 22.3774H25.421L25.9784 22.2656L26.6474 21.9862L27.0934 21.6508L27.5951 21.1479L27.9853 20.8125L28.3198 20.4213L28.5986 20.1978L28.8773 19.8625L29.3233 19.4713L29.7135 19.0242L30.1595 18.633L30.717 18.0741L30.94 17.7947L31.2745 17.5152L31.5532 17.2358L32.1664 16.5652L32.5567 16.2298L32.9469 15.7828L33.7831 14.9445L34.2291 14.5532L35.4555 13.3237L35.8458 12.8767L36.7377 11.9825L37.0165 11.7589L37.4067 11.3118L38.3544 10.3618L38.7447 9.91467L40.9188 7.73509L41.532 7.34389L42.2568 7.12034L42.8142 7.06445Z" fill="#31CEB8"/>
<path d="M11.1434 0H12.5344L13.6472 0.22346L14.5931 0.55865L15.4834 1.06143L15.9841 1.45249L16.6518 2.067L22.3829 7.8211L22.828 8.21215L24.998 10.3909L25.3875 10.0557L28.4477 6.98312L28.8929 6.59207L29.3936 6.03342L32.899 2.51392L33.3441 2.12287L34.0118 1.45249L34.9021 0.837975L35.6811 0.44692L36.5157 0.167595L37.4616 0H38.9639L39.9098 0.167595L40.8557 0.44692L41.8016 0.89384L42.5806 1.45249L43.2483 2.067L43.749 2.68152L43.9716 3.01671V3.1843L43.6934 3.07257L42.6362 2.51392L41.6347 2.2346L41.2452 2.17873H40.1324L39.2421 2.34633L38.2962 2.68152L37.4059 3.1843L36.627 3.74295L35.9036 4.41333L35.6811 4.69266L35.2359 5.08371L34.6795 5.69823H34.5683V5.80996L34.1788 6.14515L32.899 7.43004L32.5095 7.87696L31.9531 8.37975L31.8418 8.54734H31.7306V8.65907H31.6193L31.508 8.88253L30.9516 9.38532L30.0613 10.2792L29.6718 10.7261L29.1154 11.2289L25.7213 14.6366L25.4431 14.8042L25.2206 14.8601H24.7754L24.3303 14.6366L23.8852 14.2456L23.607 13.9104L19.9903 10.2792L19.5452 9.8881L19.267 9.55291L19.0444 9.38532V9.27359H18.9331L18.5436 8.82667L18.2654 8.54734L17.9872 8.32388L17.709 8.04456L17.097 7.37418L16.3736 6.64793L16.2623 6.59207V6.48034L16.0398 6.36861L14.927 5.25131L14.5375 4.80439L13.9254 4.18987L13.4803 3.79882L12.6457 3.1843L12.0893 2.84911L11.199 2.45806L10.3088 2.2346L9.97491 2.17873H8.7508L7.91619 2.34633L7.02593 2.68152L6.24696 3.12844H5.96875L6.08003 2.96084H6.19131L6.3026 2.73738L6.63644 2.29046L7.24849 1.62008L8.02747 1.06143L8.58388 0.726245L9.36285 0.391055L10.1418 0.167595L11.1434 0Z" fill="#03162A"/>
<circle cx="110.165" cy="20.9191" r="1.505" fill="#31CEB8"/>
</svg>
